<svg width="310" height="39" viewBox="0 0 310 39" fill="none" xmlns="http://www.w3.org/2000/svg">
<path d="M87.0042 10.2552C81.6126 10.2552 77.2637 14.6041 77.2637 19.9958C77.2637 25.3874 81.6126 29.7363 87.0042 29.7363C92.3959 29.7363 96.7448 25.3874 96.7448 19.9958C96.7448 14.6041 92.3959 10.2552 87.0042 10.2552ZM87.0042 26.3284C83.52 26.3284 80.6716 23.4885 80.6716 19.9958C80.6716 16.5031 83.5115 13.6631 87.0042 13.6631C90.4969 13.6631 93.3369 16.5031 93.3369 19.9958C93.3369 23.4885 90.4885 26.3284 87.0042 26.3284ZM99.4152 9.85678C99.4152 11.1199 98.3979 12.1287 97.1432 12.1287C95.8801 12.1287 94.8713 11.1114 94.8713 9.85678C94.8713 8.60212 95.8886 7.58483 97.1432 7.58483C98.3979 7.58483 99.4152 8.60212 99.4152 9.85678ZM105.866 12.1626C105.722 9.11924 105.027 6.42342 102.798 4.20234C100.577 1.98126 97.8808 1.28611 94.8374 1.13352C91.7007 0.955494 82.2993 0.955494 79.1626 1.13352C76.1277 1.27764 73.4319 1.97278 71.2023 4.19387C68.9728 6.41495 68.2861 9.11076 68.1335 12.1542C67.9555 15.2908 67.9555 24.6922 68.1335 27.8289C68.2776 30.8723 68.9728 33.5681 71.2023 35.7892C73.4319 38.0103 76.1192 38.7054 79.1626 38.858C82.2993 39.036 91.7007 39.036 94.8374 38.858C97.8808 38.7139 100.577 38.0187 102.798 35.7892C105.019 33.5681 105.714 30.8723 105.866 27.8289C106.045 24.6922 106.045 15.2993 105.866 12.1626ZM101.814 31.1944C101.153 32.856 99.873 34.1361 98.2029 34.8058C95.7021 35.7977 89.7679 35.5688 87.0042 35.5688C84.2406 35.5688 78.2979 35.7892 75.8056 34.8058C74.144 34.1446 72.8639 32.8645 72.1942 31.1944C71.2023 28.6936 71.4312 22.7594 71.4312 19.9958C71.4312 17.2321 71.2108 11.2895 72.1942 8.7971C72.8554 7.13553 74.1355 5.85544 75.8056 5.18572C78.3064 4.19386 84.2406 4.42275 87.0042 4.42275C89.7679 4.42275 95.7105 4.20234 98.2029 5.18572C99.8645 5.84696 101.145 7.12705 101.814 8.7971C102.806 11.2979 102.577 17.2321 102.577 19.9958C102.577 22.7594 102.806 28.7021 101.814 31.1944Z" fill="white"/>
<path d="M37.134 10.5308C37.395 9.649 37.134 9 35.8783 9H31.7233C30.6651 9 30.1784 9.55729 29.9174 10.1781C29.9174 10.1781 27.8011 15.3348 24.8101 18.6785C23.8436 19.645 23.3992 19.9554 22.8701 19.9554C22.6091 19.9554 22.207 19.645 22.207 18.7632V10.5308C22.207 9.47264 21.9107 9 21.036 9H14.5037C13.8406 9 13.4455 9.4938 13.4455 9.95233C13.4455 10.954 14.9411 11.1868 15.0963 14.0086V20.1317C15.0963 21.472 14.8564 21.7189 14.3273 21.7189C12.9165 21.7189 9.48806 16.5411 7.45642 10.6154C7.04727 9.46559 6.64517 9 5.57997 9H1.42497C0.239847 9 0 9.55729 0 10.1781C0 11.2785 1.41086 16.7456 6.56757 23.9693C10.003 28.9002 14.8423 31.5738 19.2442 31.5738C21.8896 31.5738 22.2141 30.9813 22.2141 29.9584C22.2141 25.2461 21.9742 24.8017 23.3004 24.8017C23.9142 24.8017 24.9723 25.1121 27.4413 27.4894C30.263 30.3111 30.7286 31.5738 32.3088 31.5738H36.4638C37.6489 31.5738 38.2485 30.9813 37.9029 29.8103C37.1128 27.3483 31.7727 22.2833 31.5328 21.9447C30.9191 21.1546 31.0955 20.8019 31.5328 20.0965C31.5399 20.0894 36.6119 12.9504 37.134 10.5308Z" fill="white"/>
<path d="M170.094 11.6916C170.118 12.0292 170.118 12.3668 170.118 12.7043C170.118 23 162.282 34.863 147.959 34.863C143.547 34.863 139.448 33.585 136 31.3669C136.627 31.4392 137.23 31.4633 137.881 31.4633C141.522 31.4633 144.873 30.2336 147.55 28.1359C144.126 28.0635 141.256 25.8211 140.268 22.7348C140.75 22.8071 141.232 22.8553 141.739 22.8553C142.438 22.8553 143.137 22.7589 143.788 22.5902C140.22 21.8668 137.543 18.7323 137.543 14.9467V14.8503C138.58 15.429 139.786 15.7907 141.063 15.8388C138.966 14.4403 137.591 12.0533 137.591 9.35275C137.591 7.90607 137.977 6.57993 138.652 5.42256C142.486 10.1485 148.249 13.2347 154.711 13.5723C154.59 12.9936 154.518 12.3909 154.518 11.7881C154.518 7.49616 157.99 4 162.306 4C164.548 4 166.574 4.94036 167.996 6.4594C169.756 6.12185 171.444 5.4708 172.939 4.57869C172.36 6.38711 171.131 7.90615 169.515 8.87055C171.083 8.70185 172.602 8.26774 174 7.66501C172.939 9.2081 171.613 10.5824 170.094 11.6916Z" fill="white"/>
<path d="M216.71 29.8331C216.71 29.9863 216.534 30.1089 216.312 30.1089C216.059 30.1319 215.883 30.0093 215.883 29.8331C215.883 29.6798 216.059 29.5573 216.281 29.5573C216.511 29.5343 216.71 29.6569 216.71 29.8331ZM214.327 29.4883C214.274 29.6415 214.427 29.8177 214.657 29.8637C214.856 29.9403 215.086 29.8637 215.132 29.7105C215.178 29.5573 215.032 29.3811 214.802 29.3121C214.603 29.2585 214.381 29.3351 214.327 29.4883ZM217.714 29.3581C217.492 29.4117 217.338 29.5573 217.361 29.7335C217.384 29.8867 217.583 29.9863 217.813 29.9327C218.035 29.879 218.189 29.7335 218.166 29.5802C218.143 29.4347 217.936 29.3351 217.714 29.3581ZM222.755 0C212.129 0 204 8.06734 204 18.6935C204 27.1899 209.348 34.4605 216.986 37.0194C217.967 37.1956 218.311 36.5903 218.311 36.0923C218.311 35.6173 218.288 32.9972 218.288 31.3883C218.288 31.3883 212.925 32.5375 211.799 29.1052C211.799 29.1052 210.926 26.8758 209.669 26.3012C209.669 26.3012 207.915 25.0984 209.792 25.1214C209.792 25.1214 211.7 25.2746 212.749 27.098C214.427 30.0552 217.239 29.2048 218.334 28.6992C218.51 27.4734 219.008 26.623 219.56 26.1173C215.277 25.6423 210.956 25.0218 210.956 17.6516C210.956 15.5448 211.539 14.4875 212.765 13.1391C212.565 12.6411 211.914 10.5879 212.964 7.9371C214.565 7.43911 218.25 10.0056 218.25 10.0056C219.782 9.57661 221.429 9.35444 223.061 9.35444C224.693 9.35444 226.34 9.57661 227.873 10.0056C227.873 10.0056 231.558 7.43145 233.159 7.9371C234.208 10.5956 233.557 12.6411 233.358 13.1391C234.584 14.4952 235.335 15.5524 235.335 17.6516C235.335 25.0448 230.822 25.6347 226.54 26.1173C227.244 26.7226 227.842 27.8718 227.842 29.6722C227.842 32.254 227.819 35.4488 227.819 36.077C227.819 36.575 228.171 37.1802 229.144 37.004C236.806 34.4605 242 27.1899 242 18.6935C242 8.06734 233.381 0 222.755 0ZM211.447 26.4238C211.347 26.5004 211.37 26.6766 211.5 26.8222C211.623 26.9448 211.799 26.9984 211.899 26.8988C211.998 26.8222 211.975 26.646 211.845 26.5004C211.723 26.3778 211.546 26.3242 211.447 26.4238ZM210.619 25.8032C210.566 25.9028 210.642 26.0254 210.796 26.102C210.918 26.1786 211.071 26.1556 211.125 26.0484C211.179 25.9488 211.102 25.8262 210.949 25.7496C210.796 25.7036 210.673 25.7266 210.619 25.8032ZM213.102 28.5306C212.979 28.6302 213.025 28.8601 213.201 29.0056C213.377 29.1819 213.6 29.2048 213.699 29.0823C213.799 28.9827 213.753 28.7528 213.6 28.6073C213.431 28.431 213.201 28.4081 213.102 28.5306ZM212.228 27.4044C212.106 27.4811 212.106 27.6802 212.228 27.8565C212.351 28.0327 212.558 28.1093 212.657 28.0327C212.78 27.9331 212.78 27.7339 212.657 27.5577C212.55 27.3815 212.351 27.3048 212.228 27.4044Z" fill="white"/>
<path d="M307.286 0H274.706C273.213 0 272 1.22991 272 2.73973V35.2603C272 36.7701 273.213 38 274.706 38H307.286C308.779 38 310 36.7701 310 35.2603V2.73973C310 1.22991 308.779 0 307.286 0ZM283.485 32.5714H277.853V14.4366H283.493V32.5714H283.485ZM280.669 11.9598C278.862 11.9598 277.403 10.4924 277.403 8.6942C277.403 6.89598 278.862 5.42857 280.669 5.42857C282.467 5.42857 283.934 6.89598 283.934 8.6942C283.934 10.5009 282.475 11.9598 280.669 11.9598ZM304.597 32.5714H298.965V23.75C298.965 21.6464 298.922 18.9406 296.038 18.9406C293.104 18.9406 292.654 21.2308 292.654 23.5973V32.5714H287.022V14.4366H292.425V16.9134H292.501C293.256 15.4884 295.097 13.9871 297.837 13.9871C303.537 13.9871 304.597 17.7446 304.597 22.6304V32.5714Z" fill="white"/>
</svg>
